<svg xmlns="http://www.w3.org/2000/svg" width="203.739" height="206.816" viewBox="0 0 203.739 206.816">
  <g id="Group_12445" data-name="Group 12445" transform="translate(-83.342 -178.684)">
    <line id="Line_6" data-name="Line 6" y2="9.484" transform="translate(216.344 374.016)" fill="none" stroke="#c01d2d" stroke-linecap="round" stroke-linejoin="round" stroke-width="4"/>
    <line id="Line_5" data-name="Line 5" x1="9.484" transform="translate(211.602 378.758)" fill="none" stroke="#c01d2d" stroke-linecap="round" stroke-linejoin="round" stroke-width="4"/>
    <line id="Line_4" data-name="Line 4" y2="9.484" transform="translate(110.636 186.305)" fill="none" stroke="#c01d2d" stroke-linecap="round" stroke-linejoin="round" stroke-width="4"/>
    <line id="Line_3" data-name="Line 3" x1="9.484" transform="translate(105.894 191.046)" fill="none" stroke="#c01d2d" stroke-linecap="round" stroke-linejoin="round" stroke-width="4"/>
    <circle id="bg_3" data-name="bg 3" cx="5.621" cy="5.621" r="5.621" transform="translate(273.84 292.233)" fill="none" stroke="#c01d2d" stroke-linecap="round" stroke-linejoin="round" stroke-width="4"/>
    <circle id="bg_2" data-name="bg 2" cx="5.621" cy="5.621" r="5.621" transform="translate(189.043 180.684)" fill="none" stroke="#c01d2d" stroke-linecap="round" stroke-linejoin="round" stroke-width="4"/>
    <circle id="bg_1" data-name="bg 1" cx="5.621" cy="5.621" r="5.621" transform="translate(85.342 297.196)" fill="none" stroke="#c01d2d" stroke-linecap="round" stroke-linejoin="round" stroke-width="4"/>
    <path id="Path_7" data-name="Path 7" d="M-417.559,523.154l-59.662-25.522V410.727l59.662,25.522Z" transform="translate(598.016 -164.124)" fill="#ffa1aa" stroke="#c01d2d" stroke-linecap="round" stroke-linejoin="round" stroke-width="4"/>
    <path id="Path_6" data-name="Path 6" d="M-352.077,497.632l-59.662,25.522V436.249l59.662-25.522Z" transform="translate(592.195 -164.124)" fill="#ffa1aa" stroke="#c01d2d" stroke-linecap="round" stroke-linejoin="round" stroke-width="4"/>
    <path id="Path_5" data-name="Path 5" d="M-357.9,408.237l-59.662-25.522-59.662,25.522,59.662,25.522Z" transform="translate(598.016 -161.634)" fill="#c01d2d" stroke="#fa4248" stroke-linecap="round" stroke-linejoin="round" stroke-width="4"/>
    <path id="Path_4" data-name="Path 4" d="M-420.849,436.249l-33.72,14.4-59.662-25.522,33.72-14.4Z" transform="translate(601.305 -164.124)" fill="#ffa1aa" stroke="#c01d2d" stroke-linecap="round" stroke-linejoin="round" stroke-width="4"/>
    <path id="Path_3" data-name="Path 3" d="M-411.739,436.249l33.72,14.4,59.662-25.522-33.72-14.4Z" transform="translate(592.195 -164.124)" fill="#ffa1aa" stroke="#c01d2d" stroke-linecap="round" stroke-linejoin="round" stroke-width="4"/>
    <path id="Path_2" data-name="Path 2" d="M-509.963,394.231l29.831,12.761,59.662-25.522L-450.3,368.71Z" transform="translate(600.926 -160.389)" fill="#ffa1aa" stroke="#c01d2d" stroke-linecap="round" stroke-linejoin="round" stroke-width="4"/>
    <path id="Path_1" data-name="Path 1" d="M-322.246,394.231l-29.831,12.761-59.662-25.522,29.831-12.761Z" transform="translate(592.195 -160.389)" fill="#ffa1aa" stroke="#c01d2d" stroke-linecap="round" stroke-linejoin="round" stroke-width="4"/>
    <circle id="bg" cx="21.489" cy="21.489" r="21.489" transform="translate(158.967 212.728)" fill="#f2fff1" stroke="#c01d2d" stroke-linecap="round" stroke-linejoin="round" stroke-width="4"/>
    <path id="icon_tick" data-name="icon tick" d="M-421.181,398.611l5.116,5.116,12.073-12.073" transform="translate(593.033 -162.429)" fill="none" stroke="#c01d2d" stroke-linecap="round" stroke-linejoin="round" stroke-width="4"/>
    <line id="Line_2" data-name="Line 2" x1="21.604" y2="9.242" transform="translate(189.997 328.71)" fill="none" stroke="#c01d2d" stroke-linecap="round" stroke-linejoin="round" stroke-width="4"/>
    <line id="Line_1" data-name="Line 1" x1="14.773" y2="6.32" transform="translate(189.997 338.471)" fill="none" stroke="#c01d2d" stroke-linecap="round" stroke-linejoin="round" stroke-width="4"/>
  </g>
</svg>
