<svg id="add_shopping_cart_black_24dp" xmlns="http://www.w3.org/2000/svg" width="19.516" height="19.516" viewBox="0 0 19.516 19.516">
  <path id="Path_13241" data-name="Path 13241" d="M0,0H19.516V19.516H0Z" fill="none"/>
  <path id="Path_13242" data-name="Path 13242" d="M9.124,7.5h1.625V5.063h2.437V3.438H10.748V1H9.124V3.438H6.687V5.063H9.124ZM5.874,14.814A1.625,1.625,0,1,0,7.5,16.439,1.623,1.623,0,0,0,5.874,14.814Zm8.124,0a1.625,1.625,0,1,0,1.625,1.625A1.623,1.623,0,0,0,14,14.814Zm-7.23-4.063H12.82a1.617,1.617,0,0,0,1.422-.837l3.136-5.7-1.414-.78L12.82,9.126h-5.7L3.656,1.813H1V3.438H2.625L5.549,9.605l-1.1,1.983A1.628,1.628,0,0,0,5.874,14h9.748V12.376H5.874Z" transform="translate(-0.183 -0.183)"/>
</svg>
