<svg xmlns="http://www.w3.org/2000/svg" width="19.533" height="11.836" viewBox="0 0 19.533 11.836">
  <g id="Group_11612" data-name="Group 11612" transform="translate(0.015 0.002)">
    <path id="Path_69" data-name="Path 69" d="M31.832,19.917A5.917,5.917,0,1,1,25.916,14a5.917,5.917,0,0,1,5.916,5.917Z" transform="translate(-12.314 -14.001)" fill="#ffc107"/>
    <path id="Path_70" data-name="Path 70" d="M15.878,23.465a5.893,5.893,0,0,1-.7-1.183h3.15a5.885,5.885,0,0,0,.376-1.183h-3.9a5.855,5.855,0,0,1-.12-1.183h4.142a6.026,6.026,0,0,0-.118-1.183H14.8a5.894,5.894,0,0,1,.379-1.183h3.15a5.892,5.892,0,0,0-.7-1.184H15.879a5.936,5.936,0,0,1,.876-.943,5.918,5.918,0,1,0,.883,8.043Z" transform="translate(-7 -14)" fill="#ff3d00"/>
  </g>
</svg>
