<svg id="noun_Category_861641" xmlns="http://www.w3.org/2000/svg" width="15.923" height="15.923" viewBox="0 0 15.923 15.923">
  <g id="Group_12299" >
    <g id="Group_12298" >
      <path id="Path_13589"  d="M38.448,64.79H42.79V60.448H38.448ZM37,60.447A1.444,1.444,0,0,1,38.447,59h4.343a1.444,1.444,0,0,1,1.447,1.447v4.343a1.444,1.444,0,0,1-1.447,1.447H38.447A1.444,1.444,0,0,1,37,64.791Zm1.448,13.029H42.79V69.133H38.448ZM37,69.133a1.444,1.444,0,0,1,1.447-1.447h4.343a1.444,1.444,0,0,1,1.447,1.447v4.343a1.444,1.444,0,0,1-1.447,1.447H38.447A1.444,1.444,0,0,1,37,73.476Zm10.133,4.343h4.343V69.133H47.133Zm-1.448-4.343a1.444,1.444,0,0,1,1.447-1.447h4.343a1.444,1.444,0,0,1,1.447,1.447v4.343a1.444,1.444,0,0,1-1.447,1.447H47.133a1.444,1.444,0,0,1-1.447-1.447Zm1.448-4.342h4.343V60.448H47.133Zm-1.448-4.343A1.444,1.444,0,0,1,47.133,59h4.343a1.444,1.444,0,0,1,1.447,1.447v4.343a1.444,1.444,0,0,1-1.447,1.447H47.133a1.444,1.444,0,0,1-1.447-1.447Z" transform="translate(-37 -59)" />
    </g>
  </g>
</svg>
