<svg id="help_outline_black_24dp" xmlns="http://www.w3.org/2000/svg" width="18.895" height="18.895" viewBox="0 0 18.895 18.895">
  <path id="Path_13604" data-name="Path 13604" d="M0,0H18.9V18.9H0Z" fill="none"/>
  <path id="Path_13605" data-name="Path 13605" d="M9.086,14.6H10.66V13.022H9.086ZM9.873,2a7.873,7.873,0,1,0,7.873,7.873A7.876,7.876,0,0,0,9.873,2Zm0,14.172a6.3,6.3,0,1,1,6.3-6.3A6.307,6.307,0,0,1,9.873,16.172Zm0-11.022A3.148,3.148,0,0,0,6.724,8.3H8.3a1.575,1.575,0,1,1,3.149,0c0,1.575-2.362,1.378-2.362,3.937H10.66c0-1.771,2.362-1.968,2.362-3.937A3.148,3.148,0,0,0,9.873,5.149Z" transform="translate(-0.425 -0.425)" fill="#c01d2d"/>
</svg>
