<svg id="Icon_Credit_Card" data-name="Icon_Credit Card" xmlns="http://www.w3.org/2000/svg" width="17.22" height="15.498" viewBox="0 0 17.22 15.498">
  <g id="Group_329" data-name="Group 329" transform="translate(0 0)">
    <path id="Path_82" data-name="Path 82" d="M15.051,3.479l-1.1-2.066A2.8,2.8,0,0,0,11.5,0a2.568,2.568,0,0,0-1.309.344l-5.717,3.1H2.755A2.763,2.763,0,0,0,0,6.2v6.544A2.763,2.763,0,0,0,2.755,15.5h11.71a2.763,2.763,0,0,0,2.755-2.755V6.2A2.775,2.775,0,0,0,15.051,3.479ZM11.021,1.86a.861.861,0,0,1,.482-.138.993.993,0,0,1,.9.551l.62,1.171H8.094ZM15.5,12.743a1.036,1.036,0,0,1-1.033,1.033H2.755a1.036,1.036,0,0,1-1.033-1.033V6.2A1.036,1.036,0,0,1,2.755,5.166h11.71A1.036,1.036,0,0,1,15.5,6.2Z" transform="translate(0 0)" fill="#fff"/>
    <path id="Path_83" data-name="Path 83" d="M19.471,21.722h-8.61A.853.853,0,0,1,10,20.861h0A.853.853,0,0,1,10.861,20h8.61a.853.853,0,0,1,.861.861h0A.875.875,0,0,1,19.471,21.722Z" transform="translate(-6.556 -13.112)" fill="#fff"/>
  </g>
</svg>
