<svg id="Icon_Saved_Cards" data-name="Icon_Saved Cards" xmlns="http://www.w3.org/2000/svg" width="16.846" height="15.498" viewBox="0 0 16.846 15.498">
  <path id="Path_84" data-name="Path 84" d="M15.835,8.086V6.4a2.7,2.7,0,0,0-2.7-2.7H2.7A1.021,1.021,0,0,1,1.685,2.662a1.036,1.036,0,0,1,1.044-.977H13.14a.971.971,0,0,1,.876.539.856.856,0,0,0,.775.472.842.842,0,0,0,.741-1.247A2.65,2.65,0,0,0,13.14,0H2.7A2.7,2.7,0,0,0,0,2.7H0V12.8a2.7,2.7,0,0,0,2.7,2.7H13.14a2.7,2.7,0,0,0,2.7-2.7V11.118H14.151V12.8a1.014,1.014,0,0,1-1.011,1.011H2.7A1.014,1.014,0,0,1,1.685,12.8V5.189a2.462,2.462,0,0,0,1.011.2H13.14A1.014,1.014,0,0,1,14.151,6.4V8.086Z" fill="#4d4d4d"/>
  <g id="Group_330" data-name="Group 330" transform="translate(9.097 7.075)">
    <path id="Path_85" data-name="Path 85" d="M33.065,22.685v1.685h-4.38V22.685h4.38M33.3,21H28.449A1.438,1.438,0,0,0,27,22.449v2.156a1.438,1.438,0,0,0,1.449,1.449H33.3a1.438,1.438,0,0,0,1.449-1.449V22.449A1.438,1.438,0,0,0,33.3,21Z" transform="translate(-27 -21)" fill="#4d4d4d"/>
  </g>
</svg>
