<svg id="icons8_PayPal_1" xmlns="http://www.w3.org/2000/svg" width="15.441" height="15.498" viewBox="0 0 15.441 15.498">
  <path id="Path_92" data-name="Path 92" d="M3.1.125.375,12.614H3.986L4.87,8.476H7.447a5,5,0,0,0,5.06-4.1A3.264,3.264,0,0,0,9.234.125ZM6.149,2.664H7.917A1.274,1.274,0,0,1,9.14,4.376,2.262,2.262,0,0,1,7.071,6.087H5.378Zm7.674.734a6,6,0,0,1-.132,1.223,6.555,6.555,0,0,1-1.429,2.953A2.264,2.264,0,0,1,10.25,9.1h-.038a6.608,6.608,0,0,1-2.765.583h-1.6l-.677,3.179-.207.959h-1l-.395,1.806H7.165l.884-4.138h2.577a5.026,5.026,0,0,0,5.078-4.1A3.218,3.218,0,0,0,13.823,3.4Z" transform="translate(-0.375 -0.125)" fill="#4d4d4d"/>
</svg>
