<svg xmlns="http://www.w3.org/2000/svg" width="50" height="46" viewBox="0 0 50 46">
  <g id="Group_12333" data-name="Group 12333" transform="translate(-153 -189)">
    <circle id="Ellipse_55" data-name="Ellipse 55" cx="3" cy="3" r="3" transform="translate(153 189)" fill="#a8a8a8"/>
    <circle id="Ellipse_56" data-name="Ellipse 56" cx="3" cy="3" r="3" transform="translate(164 189)" fill="#a8a8a8"/>
    <circle id="Ellipse_63" data-name="Ellipse 63" cx="3" cy="3" r="3" transform="translate(164 199)" fill="#a8a8a8"/>
    <circle id="Ellipse_57" data-name="Ellipse 57" cx="3" cy="3" r="3" transform="translate(175 189)" fill="#a8a8a8"/>
    <circle id="Ellipse_62" data-name="Ellipse 62" cx="3" cy="3" r="3" transform="translate(175 199)" fill="#a8a8a8"/>
    <circle id="Ellipse_67" data-name="Ellipse 67" cx="3" cy="3" r="3" transform="translate(175 209)" fill="#a8a8a8"/>
    <circle id="Ellipse_58" data-name="Ellipse 58" cx="3" cy="3" r="3" transform="translate(186 189)" fill="#a8a8a8"/>
    <circle id="Ellipse_61" data-name="Ellipse 61" cx="3" cy="3" r="3" transform="translate(186 199)" fill="#a8a8a8"/>
    <circle id="Ellipse_66" data-name="Ellipse 66" cx="3" cy="3" r="3" transform="translate(186 209)" fill="#a8a8a8"/>
    <circle id="Ellipse_71" data-name="Ellipse 71" cx="3" cy="3" r="3" transform="translate(186 219)" fill="#a8a8a8"/>
    <circle id="Ellipse_59" data-name="Ellipse 59" cx="3" cy="3" r="3" transform="translate(197 189)" fill="#a8a8a8"/>
    <circle id="Ellipse_60" data-name="Ellipse 60" cx="3" cy="3" r="3" transform="translate(197 199)" fill="#a8a8a8"/>
    <circle id="Ellipse_65" data-name="Ellipse 65" cx="3" cy="3" r="3" transform="translate(197 209)" fill="#a8a8a8"/>
    <circle id="Ellipse_70" data-name="Ellipse 70" cx="3" cy="3" r="3" transform="translate(197 219)" fill="#a8a8a8"/>
    <circle id="Ellipse_75" data-name="Ellipse 75" cx="3" cy="3" r="3" transform="translate(197 229)" fill="#a8a8a8"/>
  </g>
</svg>
