<svg id="Group_12200" data-name="Group 12200" xmlns="http://www.w3.org/2000/svg" width="94.919" height="17.037" viewBox="0 0 94.919 17.037">
  <g id="star_black_24dp_1_" data-name="star_black_24dp (1)" transform="translate(0)">
    <path id="Path_13220" data-name="Path 13220" d="M0,0H17.037V17.037H0Z" fill="none"/>
    <path id="Path_13221" data-name="Path 13221" d="M0,0H17.037V17.037H0Z" fill="none"/>
    <path id="Path_13222" data-name="Path 13222" d="M9.545,13.736,14.207,16.6,12.97,11.2,17.09,7.564,11.665,7.1,9.545,2,7.425,7.1,2,7.564,6.119,11.2,4.882,16.6Z" transform="translate(-1.026 -1.026)" fill="#fd9322"/>
  </g>
  <g id="star_black_24dp_1_2" data-name="star_black_24dp (1)" transform="translate(19.47)">
    <path id="Path_13220-2" data-name="Path 13220" d="M0,0H17.037V17.037H0Z" fill="none"/>
    <path id="Path_13221-2" data-name="Path 13221" d="M0,0H17.037V17.037H0Z" fill="none"/>
    <path id="Path_13222-2" data-name="Path 13222" d="M9.545,13.736,14.207,16.6,12.97,11.2,17.09,7.564,11.665,7.1,9.545,2,7.425,7.1,2,7.564,6.119,11.2,4.882,16.6Z" transform="translate(-1.026 -1.026)" fill="#fd9322"/>
  </g>
  <g id="star_black_24dp_1_3" data-name="star_black_24dp (1)" transform="translate(38.941)">
    <path id="Path_13220-3" data-name="Path 13220" d="M0,0H17.037V17.037H0Z" fill="none"/>
    <path id="Path_13221-3" data-name="Path 13221" d="M0,0H17.037V17.037H0Z" fill="none"/>
    <path id="Path_13222-3" data-name="Path 13222" d="M9.545,13.736,14.207,16.6,12.97,11.2,17.09,7.564,11.665,7.1,9.545,2,7.425,7.1,2,7.564,6.119,11.2,4.882,16.6Z" transform="translate(-1.026 -1.026)" fill="#fd9322"/>
  </g>
  <g id="star_black_24dp_1_4" data-name="star_black_24dp (1)" transform="translate(58.411)">
    <path id="Path_13220-4" data-name="Path 13220" d="M0,0H17.037V17.037H0Z" fill="none"/>
    <path id="Path_13221-4" data-name="Path 13221" d="M0,0H17.037V17.037H0Z" fill="none"/>
    <path id="Path_13222-4" data-name="Path 13222" d="M9.545,13.736,14.207,16.6,12.97,11.2,17.09,7.564,11.665,7.1,9.545,2,7.425,7.1,2,7.564,6.119,11.2,4.882,16.6Z" transform="translate(-1.026 -1.026)" fill="#fd9322"/>
  </g>
  <g id="star_black_24dp_1_5" data-name="star_black_24dp (1)" transform="translate(77.882)">
    <path id="Path_13220-5" data-name="Path 13220" d="M0,0H17.037V17.037H0Z" fill="none"/>
    <path id="Path_13221-5" data-name="Path 13221" d="M0,0H17.037V17.037H0Z" fill="none"/>
    <path id="Path_13222-5" data-name="Path 13222" d="M9.545,13.736,14.207,16.6,12.97,11.2,17.09,7.564,11.665,7.1,9.545,2,7.425,7.1,2,7.564,6.119,11.2,4.882,16.6Z" transform="translate(-1.026 -1.026)" fill="#fd9322"/>
  </g>
</svg>
