<svg id="Group_12264" data-name="Group 12264" xmlns="http://www.w3.org/2000/svg" width="27.147" height="27.214" viewBox="0 0 27.147 27.214">
  <path id="Path_3881" data-name="Path 3881" d="M297.286,398.011l1.951-7.28a13.472,13.472,0,1,1,5.366,5.32Zm7.681-4.688.461.275a10.94,10.94,0,1,0-3.741-3.708l.283.464-1.089,4.064Z" transform="translate(-297.286 -370.798)" fill="#fff"/>
  <path id="Path_3882" data-name="Path 3882" d="M318.219,388.365a2.259,2.259,0,0,0-1.924-.434c-.5.2-.82.988-1.143,1.387a.48.48,0,0,1-.62.135,8.721,8.721,0,0,1-4.351-3.727.534.534,0,0,1,.068-.729,2.943,2.943,0,0,0,.791-1.283,2.814,2.814,0,0,0-.354-1.519,3.6,3.6,0,0,0-1.121-1.69,1.537,1.537,0,0,0-1.669.248,3.389,3.389,0,0,0-1.174,2.683,3.8,3.8,0,0,0,.106.852,7.054,7.054,0,0,0,.817,1.883,14.853,14.853,0,0,0,.853,1.3,13.161,13.161,0,0,0,3.7,3.435A11.222,11.222,0,0,0,314.5,392a5.122,5.122,0,0,0,2.685.424,3.251,3.251,0,0,0,2.435-1.811,1.575,1.575,0,0,0,.113-.924C319.6,389.051,318.735,388.672,318.219,388.365Z" transform="translate(-299.514 -373.054)" fill="#fff" fill-rule="evenodd"/>
</svg>
